<?xml version="1.0" encoding="UTF-8" standalone="no"?>
<!DOCTYPE svg PUBLIC "-//W3C//DTD SVG 1.1//EN" "http://www.w3.org/Graphics/SVG/1.1/DTD/svg11.dtd">
<svg width="100%" height="100%" viewBox="0 0 256 256" version="1.1" xmlns="http://www.w3.org/2000/svg" xmlns:xlink="http://www.w3.org/1999/xlink" xml:space="preserve" xmlns:serif="http://www.serif.com/" style="fill-rule:evenodd;clip-rule:evenodd;stroke-linejoin:round;stroke-miterlimit:2;">
    <g id="Checkbox-Selected" serif:id="Checkbox Selected">
        <g id="Base">
            <path d="M221,72.2C221,51.669 204.331,35 183.8,35L72.2,35C51.669,35 35,51.669 35,72.2L35,183.8C35,204.331 51.669,221 72.2,221L183.8,221C204.331,221 221,204.331 221,183.8L221,72.2Z" style="fill:rgb(31,31,31);"/>
            <path d="M184.04,35.001L184.28,35.003L184.52,35.007L184.76,35.012L184.998,35.019L185.237,35.027L185.475,35.037L185.713,35.048L185.951,35.061L186.188,35.076L186.424,35.091L186.896,35.127L187.132,35.147L187.367,35.169L187.601,35.192L187.835,35.217L188.069,35.243L188.302,35.27L188.535,35.299L188.768,35.329L189,35.361L189.231,35.394L189.462,35.429L189.693,35.465L189.923,35.502L190.152,35.541L190.381,35.581L190.61,35.623L190.838,35.666L191.066,35.711L191.293,35.756L191.52,35.804L191.746,35.852L191.972,35.902L192.197,35.953L192.421,36.006L192.646,36.06L192.869,36.115L193.092,36.172L193.315,36.23L193.537,36.289L193.758,36.35L193.979,36.412L194.419,36.54L194.638,36.606L194.857,36.674L195.075,36.742L195.293,36.812L195.509,36.883L195.726,36.956L195.942,37.03L196.157,37.105L196.371,37.181L196.585,37.259L196.798,37.338L197.011,37.418L197.223,37.499L197.435,37.582L197.645,37.666L197.856,37.751L198.274,37.925L198.482,38.014L198.69,38.104L198.897,38.196L199.103,38.288L199.309,38.382L199.514,38.477L199.718,38.573L199.922,38.671L200.125,38.769L200.327,38.869L200.528,38.97L200.729,39.072L201.129,39.28L201.328,39.386L201.526,39.493L201.723,39.601L201.919,39.71L202.115,39.82L202.505,40.044L202.698,40.158L202.891,40.273L203.083,40.389L203.275,40.506L203.465,40.624L203.655,40.743L203.844,40.864L204.033,40.986L204.22,41.108L204.407,41.232L204.593,41.357L204.778,41.483L204.962,41.61L205.146,41.738L205.329,41.867L205.511,41.997L205.692,42.129L205.872,42.261L206.051,42.394L206.23,42.529L206.408,42.664L206.585,42.801L206.761,42.938L206.936,43.077L207.111,43.217L207.284,43.357L207.457,43.499L207.629,43.642L207.8,43.786L207.97,43.93L208.139,44.076L208.475,44.37L208.641,44.519L208.807,44.669L208.972,44.819L209.136,44.971L209.46,45.277L209.622,45.432L209.782,45.587L209.941,45.743L210.257,46.059L210.413,46.218L210.568,46.378L210.723,46.54L211.029,46.864L211.181,47.028L211.331,47.193L211.481,47.359L211.63,47.525L211.924,47.861L212.07,48.03L212.214,48.2L212.358,48.371L212.501,48.543L212.643,48.716L212.783,48.889L212.923,49.064L213.062,49.239L213.199,49.415L213.336,49.592L213.471,49.77L213.606,49.949L213.739,50.128L213.871,50.308L214.003,50.489L214.133,50.671L214.262,50.854L214.39,51.038L214.517,51.222L214.643,51.407L214.768,51.593L214.892,51.78L215.014,51.967L215.136,52.156L215.257,52.345L215.376,52.535L215.494,52.725L215.611,52.917L215.727,53.109L215.842,53.302L215.956,53.495L216.18,53.885L216.29,54.081L216.399,54.277L216.507,54.474L216.614,54.672L216.72,54.871L216.928,55.271L217.03,55.472L217.131,55.673L217.231,55.875L217.329,56.078L217.427,56.282L217.523,56.486L217.618,56.691L217.712,56.897L217.804,57.103L217.896,57.31L217.986,57.518L218.075,57.726L218.249,58.144L218.334,58.355L218.418,58.565L218.501,58.777L218.582,58.989L218.662,59.202L218.741,59.415L218.819,59.629L218.895,59.843L218.97,60.058L219.044,60.274L219.117,60.491L219.188,60.707L219.258,60.925L219.326,61.143L219.394,61.362L219.46,61.581L219.588,62.021L219.65,62.242L219.711,62.463L219.77,62.685L219.828,62.908L219.885,63.131L219.94,63.354L219.994,63.579L220.047,63.803L220.098,64.028L220.148,64.254L220.196,64.48L220.244,64.707L220.289,64.934L220.334,65.162L220.377,65.39L220.419,65.619L220.459,65.848L220.498,66.077L220.535,66.307L220.571,66.538L220.606,66.769L220.639,67L220.671,67.232L220.701,67.465L220.73,67.698L220.757,67.931L220.783,68.165L220.808,68.399L220.831,68.633L220.853,68.868L220.873,69.104L220.909,69.576L220.924,69.812L220.939,70.049L220.952,70.287L220.963,70.525L220.973,70.763L220.981,71.002L220.988,71.24L220.993,71.48L220.997,71.72L220.999,71.96L221,72.2L221,183.8L220.999,184.04L220.997,184.28L220.993,184.52L220.988,184.76L220.981,184.998L220.973,185.237L220.963,185.475L220.952,185.713L220.939,185.951L220.924,186.188L220.909,186.424L220.873,186.896L220.853,187.132L220.831,187.367L220.808,187.601L220.783,187.835L220.757,188.069L220.73,188.302L220.701,188.535L220.671,188.768L220.639,189L220.606,189.231L220.571,189.462L220.535,189.693L220.498,189.923L220.459,190.152L220.419,190.381L220.377,190.61L220.334,190.838L220.289,191.066L220.244,191.293L220.196,191.52L220.148,191.746L220.098,191.972L220.047,192.197L219.994,192.421L219.94,192.646L219.885,192.869L219.828,193.092L219.77,193.315L219.711,193.537L219.65,193.758L219.588,193.979L219.46,194.419L219.394,194.638L219.326,194.857L219.258,195.075L219.188,195.293L219.117,195.509L219.044,195.726L218.97,195.942L218.895,196.157L218.819,196.371L218.741,196.585L218.662,196.798L218.582,197.011L218.501,197.223L218.418,197.435L218.334,197.645L218.249,197.856L218.075,198.274L217.986,198.482L217.896,198.69L217.804,198.897L217.712,199.103L217.618,199.309L217.523,199.514L217.427,199.718L217.329,199.922L217.231,200.125L217.131,200.327L217.03,200.528L216.928,200.729L216.72,201.129L216.614,201.328L216.507,201.526L216.399,201.723L216.29,201.919L216.18,202.115L215.956,202.505L215.842,202.698L215.727,202.891L215.611,203.083L215.494,203.275L215.376,203.465L215.257,203.655L215.136,203.844L215.014,204.033L214.892,204.22L214.768,204.407L214.643,204.593L214.517,204.778L214.39,204.962L214.262,205.146L214.133,205.329L214.003,205.511L213.871,205.692L213.739,205.872L213.606,206.051L213.471,206.23L213.336,206.408L213.199,206.585L213.062,206.761L212.923,206.936L212.783,207.111L212.643,207.284L212.501,207.457L212.358,207.629L212.214,207.8L212.07,207.97L211.924,208.139L211.63,208.475L211.481,208.641L211.331,208.807L211.181,208.972L211.029,209.136L210.723,209.46L210.568,209.622L210.413,209.782L210.257,209.941L209.941,210.257L209.782,210.413L209.622,210.568L209.46,210.723L209.136,211.029L208.972,211.181L208.807,211.331L208.641,211.481L208.475,211.63L208.139,211.924L207.97,212.07L207.8,212.214L207.629,212.358L207.457,212.501L207.284,212.643L207.111,212.783L206.936,212.923L206.761,213.062L206.585,213.199L206.408,213.336L206.23,213.471L206.051,213.606L205.872,213.739L205.692,213.871L205.511,214.003L205.329,214.133L205.146,214.262L204.962,214.39L204.778,214.517L204.593,214.643L204.407,214.768L204.22,214.892L204.033,215.014L203.844,215.136L203.655,215.257L203.465,215.376L203.275,215.494L203.083,215.611L202.891,215.727L202.698,215.842L202.505,215.956L202.115,216.18L201.919,216.29L201.723,216.399L201.526,216.507L201.328,216.614L201.129,216.72L200.729,216.928L200.528,217.03L200.327,217.131L200.125,217.231L199.922,217.329L199.718,217.427L199.514,217.523L199.309,217.618L199.103,217.712L198.897,217.804L198.69,217.896L198.482,217.986L198.274,218.075L197.856,218.249L197.645,218.334L197.435,218.418L197.223,218.501L197.011,218.582L196.798,218.662L196.585,218.741L196.371,218.819L196.157,218.895L195.942,218.97L195.726,219.044L195.509,219.117L195.293,219.188L195.075,219.258L194.857,219.326L194.638,219.394L194.419,219.46L193.979,219.588L193.758,219.65L193.537,219.711L193.315,219.77L193.092,219.828L192.869,219.885L192.646,219.94L192.421,219.994L192.197,220.047L191.972,220.098L191.746,220.148L191.52,220.196L191.293,220.244L191.066,220.289L190.838,220.334L190.61,220.377L190.381,220.419L190.152,220.459L189.923,220.498L189.693,220.535L189.462,220.571L189.231,220.606L189,220.639L188.768,220.671L188.535,220.701L188.302,220.73L188.069,220.757L187.835,220.783L187.601,220.808L187.367,220.831L187.132,220.853L186.896,220.873L186.424,220.909L186.188,220.924L185.951,220.939L185.713,220.952L185.475,220.963L185.237,220.973L184.998,220.981L184.76,220.988L184.52,220.993L184.28,220.997L184.04,220.999L183.8,221L72.2,221L71.96,220.999L71.72,220.997L71.48,220.993L71.24,220.988L71.002,220.981L70.763,220.973L70.525,220.963L70.287,220.952L70.049,220.939L69.812,220.924L69.576,220.909L69.104,220.873L68.868,220.853L68.633,220.831L68.399,220.808L68.165,220.783L67.931,220.757L67.698,220.73L67.465,220.701L67.232,220.671L67,220.639L66.769,220.606L66.538,220.571L66.307,220.535L66.077,220.498L65.848,220.459L65.619,220.419L65.39,220.377L65.162,220.334L64.934,220.289L64.707,220.244L64.48,220.196L64.254,220.148L64.028,220.098L63.803,220.047L63.579,219.994L63.354,219.94L63.131,219.885L62.908,219.828L62.685,219.77L62.463,219.711L62.242,219.65L62.021,219.588L61.581,219.46L61.362,219.394L61.143,219.326L60.925,219.258L60.707,219.188L60.491,219.117L60.274,219.044L60.058,218.97L59.843,218.895L59.629,218.819L59.415,218.741L59.202,218.662L58.989,218.582L58.777,218.501L58.565,218.418L58.355,218.334L58.144,218.249L57.726,218.075L57.518,217.986L57.31,217.896L57.103,217.804L56.897,217.712L56.691,217.618L56.486,217.523L56.282,217.427L56.078,217.329L55.875,217.231L55.673,217.131L55.472,217.03L55.271,216.928L54.871,216.72L54.672,216.614L54.474,216.507L54.277,216.399L54.081,216.29L53.885,216.18L53.495,215.956L53.302,215.842L53.109,215.727L52.917,215.611L52.725,215.494L52.535,215.376L52.345,215.257L52.156,215.136L51.967,215.014L51.78,214.892L51.593,214.768L51.407,214.643L51.222,214.517L51.038,214.39L50.854,214.262L50.671,214.133L50.489,214.003L50.308,213.871L50.128,213.739L49.949,213.606L49.77,213.471L49.592,213.336L49.415,213.199L49.239,213.062L49.064,212.923L48.889,212.783L48.716,212.643L48.543,212.501L48.371,212.358L48.2,212.214L48.03,212.07L47.861,211.924L47.525,211.63L47.359,211.481L47.193,211.331L47.028,211.181L46.864,211.029L46.54,210.723L46.378,210.568L46.218,210.413L46.059,210.257L45.743,209.941L45.587,209.782L45.432,209.622L45.277,209.46L44.971,209.136L44.819,208.972L44.669,208.807L44.519,208.641L44.37,208.475L44.076,208.139L43.93,207.97L43.786,207.8L43.642,207.629L43.499,207.457L43.357,207.284L43.217,207.111L43.077,206.936L42.938,206.761L42.801,206.585L42.664,206.408L42.529,206.23L42.394,206.051L42.261,205.872L42.129,205.692L41.997,205.511L41.867,205.329L41.738,205.146L41.61,204.962L41.483,204.778L41.357,204.593L41.232,204.407L41.108,204.22L40.986,204.033L40.864,203.844L40.743,203.655L40.624,203.465L40.506,203.275L40.389,203.083L40.273,202.891L40.158,202.698L40.044,202.505L39.82,202.115L39.71,201.919L39.601,201.723L39.493,201.526L39.386,201.328L39.28,201.129L39.072,200.729L38.97,200.528L38.869,200.327L38.769,200.125L38.671,199.922L38.573,199.718L38.477,199.514L38.382,199.309L38.288,199.103L38.196,198.897L38.104,198.69L38.014,198.482L37.925,198.274L37.751,197.856L37.666,197.645L37.582,197.435L37.499,197.223L37.418,197.011L37.338,196.798L37.259,196.585L37.181,196.371L37.105,196.157L37.03,195.942L36.956,195.726L36.883,195.509L36.812,195.293L36.742,195.075L36.674,194.857L36.606,194.638L36.54,194.419L36.412,193.979L36.35,193.758L36.289,193.537L36.23,193.315L36.172,193.092L36.115,192.869L36.06,192.646L36.006,192.421L35.953,192.197L35.902,191.972L35.852,191.746L35.804,191.52L35.756,191.293L35.711,191.066L35.666,190.838L35.623,190.61L35.581,190.381L35.541,190.152L35.502,189.923L35.465,189.693L35.429,189.462L35.394,189.231L35.361,189L35.329,188.768L35.299,188.535L35.27,188.302L35.243,188.069L35.217,187.835L35.192,187.601L35.169,187.367L35.147,187.132L35.127,186.896L35.091,186.424L35.076,186.188L35.061,185.951L35.048,185.713L35.037,185.475L35.027,185.237L35.019,184.998L35.012,184.76L35.007,184.52L35.003,184.28L35.001,184.04L35,183.8L35,72.2L35.001,71.96L35.003,71.72L35.007,71.48L35.012,71.24L35.019,71.002L35.027,70.763L35.037,70.525L35.048,70.287L35.061,70.049L35.076,69.812L35.091,69.576L35.127,69.104L35.147,68.868L35.169,68.633L35.192,68.399L35.217,68.165L35.243,67.931L35.27,67.698L35.299,67.465L35.329,67.232L35.361,67L35.394,66.769L35.429,66.538L35.465,66.307L35.502,66.077L35.541,65.848L35.581,65.619L35.623,65.39L35.666,65.162L35.711,64.934L35.756,64.707L35.804,64.48L35.852,64.254L35.902,64.028L35.953,63.803L36.006,63.579L36.06,63.354L36.115,63.131L36.172,62.908L36.23,62.685L36.289,62.463L36.35,62.242L36.412,62.021L36.54,61.581L36.606,61.362L36.674,61.143L36.742,60.925L36.812,60.707L36.883,60.491L36.956,60.274L37.03,60.058L37.105,59.843L37.181,59.629L37.259,59.415L37.338,59.202L37.418,58.989L37.499,58.777L37.582,58.565L37.666,58.355L37.751,58.144L37.925,57.726L38.014,57.518L38.104,57.31L38.196,57.103L38.288,56.897L38.382,56.691L38.477,56.486L38.573,56.282L38.671,56.078L38.769,55.875L38.869,55.673L38.97,55.472L39.072,55.271L39.28,54.871L39.386,54.672L39.493,54.474L39.601,54.277L39.71,54.081L39.82,53.885L40.044,53.495L40.158,53.302L40.273,53.109L40.389,52.917L40.506,52.725L40.624,52.535L40.743,52.345L40.864,52.156L40.986,51.967L41.108,51.78L41.232,51.593L41.357,51.407L41.483,51.222L41.61,51.038L41.738,50.854L41.867,50.671L41.997,50.489L42.129,50.308L42.261,50.128L42.394,49.949L42.529,49.77L42.664,49.592L42.801,49.415L42.938,49.239L43.077,49.064L43.217,48.889L43.357,48.716L43.499,48.543L43.642,48.371L43.786,48.2L43.93,48.03L44.076,47.861L44.37,47.525L44.519,47.359L44.669,47.193L44.819,47.028L44.971,46.864L45.277,46.54L45.432,46.378L45.587,46.218L45.743,46.059L46.059,45.743L46.218,45.587L46.378,45.432L46.54,45.277L46.864,44.971L47.028,44.819L47.193,44.669L47.359,44.519L47.525,44.37L47.861,44.076L48.03,43.93L48.2,43.786L48.371,43.642L48.543,43.499L48.716,43.357L48.889,43.217L49.064,43.077L49.239,42.938L49.415,42.801L49.592,42.664L49.77,42.529L49.949,42.394L50.128,42.261L50.308,42.129L50.489,41.997L50.671,41.867L50.854,41.738L51.038,41.61L51.222,41.483L51.407,41.357L51.593,41.232L51.78,41.108L51.967,40.986L52.156,40.864L52.345,40.743L52.535,40.624L52.725,40.506L52.917,40.389L53.109,40.273L53.302,40.158L53.495,40.044L53.885,39.82L54.081,39.71L54.277,39.601L54.474,39.493L54.672,39.386L54.871,39.28L55.271,39.072L55.472,38.97L55.673,38.869L55.875,38.769L56.078,38.671L56.282,38.573L56.486,38.477L56.691,38.382L56.897,38.288L57.103,38.196L57.31,38.104L57.518,38.014L57.726,37.925L58.144,37.751L58.355,37.666L58.565,37.582L58.777,37.499L58.989,37.418L59.202,37.338L59.415,37.259L59.629,37.181L59.843,37.105L60.058,37.03L60.274,36.956L60.491,36.883L60.707,36.812L60.925,36.742L61.143,36.674L61.362,36.606L61.581,36.54L62.021,36.412L62.242,36.35L62.463,36.289L62.685,36.23L62.908,36.172L63.131,36.115L63.354,36.06L63.579,36.006L63.803,35.953L64.028,35.902L64.254,35.852L64.48,35.804L64.707,35.756L64.934,35.711L65.162,35.666L65.39,35.623L65.619,35.581L65.848,35.541L66.077,35.502L66.307,35.465L66.538,35.429L66.769,35.394L67,35.361L67.232,35.329L67.465,35.299L67.698,35.27L67.931,35.243L68.165,35.217L68.399,35.192L68.633,35.169L68.868,35.147L69.104,35.127L69.576,35.091L69.812,35.076L70.049,35.061L70.287,35.048L70.525,35.037L70.763,35.027L71.002,35.019L71.24,35.012L71.48,35.007L71.72,35.003L71.96,35.001L72.2,35L183.8,35L184.04,35.001ZM72.202,36L71.966,36.001L71.732,36.003L71.499,36.007L71.266,36.012L71.033,36.018L70.569,36.036L70.338,36.047L70.106,36.06L69.876,36.074L69.645,36.089L69.416,36.106L69.186,36.124L68.957,36.144L68.728,36.165L68.5,36.187L68.272,36.211L68.045,36.236L67.818,36.263L67.591,36.291L67.365,36.321L67.139,36.352L66.914,36.384L66.689,36.417L66.241,36.489L66.018,36.527L65.795,36.566L65.572,36.606L65.35,36.648L65.129,36.691L64.908,36.736L64.687,36.782L64.467,36.829L64.247,36.878L64.028,36.928L63.81,36.979L63.592,37.031L63.374,37.085L63.157,37.14L62.941,37.197L62.725,37.255L62.509,37.314L62.294,37.374L62.08,37.436L61.866,37.499L61.653,37.563L61.44,37.628L61.228,37.695L61.016,37.763L60.805,37.833L60.595,37.903L60.385,37.975L60.176,38.048L59.967,38.122L59.759,38.198L59.551,38.275L59.345,38.353L59.138,38.432L58.932,38.512L58.727,38.594L58.523,38.677L58.319,38.761L58.116,38.846L57.913,38.933L57.711,39.02L57.51,39.109L57.309,39.199L56.909,39.383L56.513,39.571L56.315,39.667L56.118,39.764L55.922,39.863L55.727,39.962L55.532,40.063L55.338,40.164L55.145,40.267L54.952,40.371L54.76,40.476L54.378,40.69L54.188,40.798L53.999,40.908L53.623,41.13L53.436,41.243L53.25,41.357L53.064,41.472L52.88,41.588L52.512,41.824L52.33,41.943L52.148,42.064L51.967,42.185L51.787,42.308L51.429,42.556L51.251,42.682L51.074,42.809L50.898,42.936L50.722,43.065L50.548,43.195L50.374,43.326L50.201,43.458L50.028,43.591L49.857,43.725L49.686,43.86L49.348,44.132L49.18,44.27L49.012,44.409L48.846,44.549L48.68,44.69L48.516,44.832L48.352,44.975L48.189,45.118L48.027,45.263L47.705,45.555L47.387,45.851L47.073,46.151L46.917,46.303L46.762,46.455L46.608,46.608L46.455,46.762L46.303,46.917L46.151,47.073L45.851,47.387L45.555,47.705L45.263,48.027L45.118,48.189L44.975,48.352L44.832,48.516L44.69,48.68L44.549,48.846L44.409,49.012L44.27,49.18L44.132,49.348L43.86,49.686L43.725,49.857L43.591,50.028L43.458,50.201L43.326,50.374L43.195,50.548L43.065,50.722L42.936,50.898L42.809,51.074L42.682,51.251L42.556,51.429L42.308,51.787L42.185,51.967L42.064,52.148L41.943,52.33L41.824,52.512L41.588,52.88L41.472,53.064L41.357,53.25L41.243,53.436L41.13,53.623L40.908,53.999L40.798,54.188L40.69,54.378L40.476,54.76L40.371,54.952L40.267,55.145L40.164,55.338L40.063,55.532L39.962,55.727L39.863,55.922L39.764,56.118L39.667,56.315L39.571,56.513L39.383,56.909L39.199,57.309L39.109,57.51L39.02,57.711L38.933,57.913L38.846,58.116L38.761,58.319L38.677,58.523L38.594,58.727L38.512,58.932L38.432,59.138L38.353,59.345L38.275,59.551L38.198,59.759L38.122,59.967L38.048,60.176L37.975,60.385L37.903,60.595L37.833,60.805L37.763,61.016L37.695,61.228L37.628,61.44L37.563,61.653L37.499,61.866L37.436,62.08L37.374,62.294L37.314,62.509L37.255,62.725L37.197,62.941L37.14,63.157L37.085,63.374L37.031,63.592L36.979,63.81L36.928,64.028L36.878,64.247L36.829,64.467L36.782,64.687L36.736,64.908L36.691,65.129L36.648,65.35L36.606,65.572L36.566,65.795L36.527,66.018L36.489,66.241L36.417,66.689L36.384,66.914L36.352,67.139L36.321,67.365L36.291,67.591L36.263,67.818L36.236,68.045L36.211,68.272L36.187,68.5L36.165,68.728L36.144,68.957L36.124,69.186L36.106,69.416L36.089,69.645L36.074,69.876L36.06,70.106L36.047,70.338L36.036,70.569L36.018,71.033L36.012,71.266L36.007,71.499L36.003,71.732L36.001,71.966L36,72.202L36,183.798L36.001,184.034L36.003,184.268L36.007,184.501L36.012,184.734L36.018,184.967L36.036,185.431L36.047,185.662L36.06,185.894L36.074,186.124L36.089,186.355L36.106,186.584L36.124,186.814L36.144,187.043L36.165,187.272L36.187,187.5L36.211,187.728L36.236,187.955L36.263,188.182L36.291,188.409L36.321,188.635L36.352,188.861L36.384,189.086L36.417,189.311L36.489,189.759L36.527,189.982L36.566,190.205L36.606,190.428L36.648,190.65L36.691,190.871L36.736,191.092L36.782,191.313L36.829,191.533L36.878,191.753L36.928,191.972L36.979,192.19L37.031,192.408L37.085,192.626L37.14,192.843L37.197,193.059L37.255,193.275L37.314,193.491L37.374,193.706L37.436,193.92L37.499,194.134L37.563,194.347L37.628,194.56L37.695,194.772L37.763,194.984L37.833,195.195L37.903,195.405L37.975,195.615L38.048,195.824L38.122,196.033L38.198,196.241L38.275,196.449L38.353,196.655L38.432,196.862L38.512,197.068L38.594,197.273L38.677,197.477L38.761,197.681L38.846,197.884L38.933,198.087L39.02,198.289L39.109,198.49L39.199,198.691L39.383,199.091L39.571,199.487L39.667,199.685L39.764,199.882L39.863,200.078L39.962,200.273L40.063,200.468L40.164,200.662L40.267,200.855L40.371,201.048L40.476,201.24L40.69,201.622L40.798,201.812L40.908,202.001L41.13,202.377L41.243,202.564L41.357,202.75L41.472,202.936L41.588,203.12L41.824,203.488L41.943,203.67L42.064,203.852L42.185,204.033L42.308,204.213L42.556,204.571L42.682,204.749L42.809,204.926L42.936,205.102L43.065,205.278L43.195,205.452L43.326,205.626L43.458,205.799L43.591,205.972L43.725,206.143L43.86,206.314L44.132,206.652L44.27,206.82L44.409,206.988L44.549,207.154L44.69,207.32L44.832,207.484L44.975,207.648L45.118,207.811L45.263,207.973L45.555,208.295L45.851,208.613L46.151,208.927L46.303,209.083L46.455,209.238L46.608,209.392L46.762,209.545L46.917,209.697L47.073,209.849L47.387,210.149L47.705,210.445L48.027,210.737L48.189,210.882L48.352,211.025L48.516,211.168L48.68,211.31L48.846,211.451L49.012,211.591L49.18,211.73L49.348,211.868L49.686,212.14L49.857,212.275L50.028,212.409L50.201,212.542L50.374,212.674L50.548,212.805L50.722,212.935L50.898,213.064L51.074,213.191L51.251,213.318L51.429,213.444L51.607,213.568L51.787,213.692L51.967,213.815L52.148,213.936L52.33,214.057L52.512,214.176L52.88,214.412L53.064,214.528L53.25,214.643L53.436,214.757L53.623,214.87L53.999,215.092L54.188,215.202L54.378,215.31L54.76,215.524L54.952,215.629L55.145,215.733L55.338,215.836L55.532,215.937L55.727,216.038L55.922,216.137L56.118,216.236L56.315,216.333L56.513,216.429L56.909,216.617L57.309,216.801L57.51,216.891L57.711,216.98L57.913,217.067L58.116,217.154L58.319,217.239L58.523,217.323L58.727,217.406L58.932,217.488L59.138,217.568L59.344,217.647L59.551,217.725L59.759,217.802L59.967,217.878L60.176,217.952L60.385,218.025L60.595,218.097L60.805,218.167L61.016,218.237L61.228,218.305L61.44,218.372L61.653,218.437L61.866,218.501L62.08,218.564L62.294,218.626L62.509,218.686L62.725,218.745L62.941,218.803L63.157,218.86L63.374,218.915L63.592,218.969L63.81,219.021L64.028,219.072L64.247,219.122L64.467,219.171L64.687,219.218L64.908,219.264L65.129,219.309L65.35,219.352L65.572,219.394L65.795,219.434L66.018,219.473L66.241,219.511L66.689,219.583L66.914,219.616L67.139,219.648L67.365,219.679L67.591,219.709L67.818,219.737L68.045,219.764L68.272,219.789L68.5,219.813L68.728,219.835L68.957,219.856L69.186,219.876L69.416,219.894L69.645,219.911L69.876,219.926L70.107,219.94L70.338,219.953L70.569,219.964L71.033,219.982L71.266,219.988L71.499,219.993L71.732,219.997L71.966,219.999L72.202,220L183.798,220L184.034,219.999L184.268,219.997L184.501,219.993L184.734,219.988L184.967,219.982L185.431,219.964L185.662,219.953L185.893,219.94L186.124,219.926L186.355,219.911L186.584,219.894L186.814,219.876L187.043,219.856L187.272,219.835L187.5,219.813L187.728,219.789L187.955,219.764L188.182,219.737L188.409,219.709L188.635,219.679L188.861,219.648L189.086,219.616L189.311,219.583L189.759,219.511L189.982,219.473L190.205,219.434L190.428,219.394L190.65,219.352L190.871,219.309L191.092,219.264L191.313,219.218L191.533,219.171L191.753,219.122L191.972,219.072L192.19,219.021L192.408,218.969L192.626,218.915L192.843,218.86L193.059,218.803L193.275,218.745L193.491,218.686L193.706,218.626L193.92,218.564L194.134,218.501L194.347,218.437L194.56,218.372L194.772,218.305L194.984,218.237L195.195,218.167L195.405,218.097L195.615,218.025L195.824,217.952L196.033,217.878L196.241,217.802L196.449,217.725L196.656,217.647L196.862,217.568L197.068,217.488L197.273,217.406L197.477,217.323L197.681,217.239L197.884,217.154L198.087,217.067L198.289,216.98L198.49,216.891L198.691,216.801L199.091,216.617L199.487,216.429L199.685,216.333L199.882,216.236L200.078,216.137L200.273,216.038L200.468,215.937L200.662,215.836L200.855,215.733L201.048,215.629L201.24,215.524L201.622,215.31L201.812,215.202L202.001,215.092L202.377,214.87L202.564,214.757L202.75,214.643L202.936,214.528L203.12,214.412L203.488,214.176L203.67,214.057L203.852,213.936L204.033,213.815L204.213,213.692L204.571,213.444L204.749,213.318L204.926,213.191L205.102,213.064L205.278,212.935L205.452,212.805L205.626,212.674L205.799,212.542L205.972,212.409L206.143,212.275L206.314,212.14L206.652,211.868L206.82,211.73L206.988,211.591L207.154,211.451L207.32,211.31L207.484,211.168L207.648,211.025L207.811,210.882L207.973,210.737L208.295,210.445L208.613,210.149L208.927,209.849L209.083,209.697L209.238,209.545L209.392,209.392L209.545,209.238L209.697,209.083L209.849,208.927L210.149,208.613L210.445,208.295L210.737,207.973L210.882,207.811L211.025,207.648L211.168,207.484L211.31,207.32L211.451,207.154L211.591,206.988L211.73,206.82L211.868,206.652L212.14,206.314L212.275,206.143L212.409,205.972L212.542,205.799L212.674,205.626L212.805,205.452L212.935,205.278L213.064,205.102L213.191,204.926L213.318,204.749L213.444,204.571L213.692,204.213L213.815,204.033L213.936,203.852L214.057,203.67L214.176,203.488L214.412,203.12L214.528,202.936L214.643,202.75L214.757,202.564L214.87,202.377L215.092,202.001L215.202,201.812L215.31,201.622L215.524,201.24L215.629,201.048L215.733,200.855L215.836,200.662L215.937,200.468L216.038,200.273L216.137,200.078L216.236,199.882L216.333,199.685L216.429,199.487L216.617,199.091L216.801,198.691L216.891,198.49L216.98,198.289L217.067,198.087L217.154,197.884L217.239,197.681L217.323,197.477L217.406,197.273L217.488,197.068L217.568,196.862L217.647,196.656L217.725,196.449L217.802,196.241L217.878,196.033L217.952,195.824L218.025,195.615L218.097,195.405L218.167,195.195L218.237,194.984L218.305,194.772L218.372,194.56L218.437,194.347L218.501,194.134L218.564,193.92L218.626,193.706L218.686,193.491L218.745,193.275L218.803,193.059L218.86,192.843L218.915,192.626L218.969,192.408L219.021,192.19L219.072,191.972L219.122,191.753L219.171,191.533L219.218,191.313L219.264,191.092L219.309,190.871L219.352,190.65L219.394,190.428L219.434,190.205L219.473,189.982L219.511,189.759L219.583,189.311L219.616,189.086L219.648,188.861L219.679,188.635L219.709,188.409L219.737,188.182L219.764,187.955L219.789,187.728L219.813,187.5L219.835,187.272L219.856,187.043L219.876,186.814L219.894,186.584L219.911,186.355L219.926,186.124L219.94,185.893L219.953,185.662L219.964,185.431L219.982,184.967L219.988,184.734L219.993,184.501L219.997,184.268L219.999,184.034L220,183.798L220,72.202L219.999,71.966L219.997,71.732L219.993,71.499L219.988,71.266L219.982,71.033L219.964,70.569L219.953,70.338L219.94,70.107L219.926,69.876L219.911,69.645L219.894,69.416L219.876,69.186L219.856,68.957L219.835,68.728L219.813,68.5L219.789,68.272L219.764,68.045L219.737,67.818L219.709,67.591L219.679,67.365L219.648,67.139L219.616,66.914L219.583,66.689L219.511,66.241L219.473,66.018L219.434,65.795L219.394,65.572L219.352,65.35L219.309,65.129L219.264,64.908L219.218,64.687L219.171,64.467L219.122,64.247L219.072,64.028L219.021,63.81L218.969,63.592L218.915,63.374L218.86,63.157L218.803,62.941L218.745,62.725L218.686,62.509L218.626,62.294L218.564,62.08L218.501,61.866L218.437,61.653L218.372,61.44L218.305,61.228L218.237,61.016L218.167,60.805L218.097,60.595L218.025,60.385L217.952,60.176L217.878,59.967L217.802,59.759L217.725,59.551L217.647,59.344L217.568,59.138L217.488,58.932L217.406,58.727L217.323,58.523L217.239,58.319L217.154,58.116L217.067,57.913L216.98,57.711L216.891,57.51L216.801,57.309L216.617,56.909L216.429,56.513L216.333,56.315L216.236,56.118L216.137,55.922L216.038,55.727L215.937,55.532L215.836,55.338L215.733,55.145L215.629,54.952L215.524,54.76L215.31,54.378L215.202,54.188L215.092,53.999L214.87,53.623L214.757,53.436L214.643,53.25L214.528,53.064L214.412,52.88L214.176,52.512L214.057,52.33L213.936,52.148L213.815,51.967L213.692,51.787L213.568,51.607L213.444,51.429L213.318,51.251L213.191,51.074L213.064,50.898L212.935,50.722L212.805,50.548L212.674,50.374L212.542,50.201L212.409,50.028L212.275,49.857L212.14,49.686L211.868,49.348L211.73,49.18L211.591,49.012L211.451,48.846L211.31,48.68L211.168,48.516L211.025,48.352L210.882,48.189L210.737,48.027L210.445,47.705L210.149,47.387L209.849,47.073L209.697,46.917L209.545,46.762L209.392,46.608L209.238,46.455L209.083,46.303L208.927,46.151L208.613,45.851L208.295,45.555L207.973,45.263L207.811,45.118L207.648,44.975L207.484,44.832L207.32,44.69L207.154,44.549L206.988,44.409L206.82,44.27L206.652,44.132L206.314,43.86L206.143,43.725L205.972,43.591L205.799,43.458L205.626,43.326L205.452,43.195L205.278,43.065L205.102,42.936L204.926,42.809L204.749,42.682L204.571,42.556L204.213,42.308L204.033,42.185L203.852,42.064L203.67,41.943L203.488,41.824L203.12,41.588L202.936,41.472L202.75,41.357L202.564,41.243L202.377,41.13L202.001,40.908L201.812,40.798L201.622,40.69L201.24,40.476L201.048,40.371L200.855,40.267L200.662,40.164L200.468,40.063L200.273,39.962L200.078,39.863L199.882,39.764L199.685,39.667L199.487,39.571L199.091,39.383L198.691,39.199L198.49,39.109L198.289,39.02L198.087,38.933L197.884,38.846L197.681,38.761L197.477,38.677L197.273,38.594L197.068,38.512L196.862,38.432L196.655,38.353L196.449,38.275L196.241,38.198L196.033,38.122L195.824,38.048L195.615,37.975L195.405,37.903L195.195,37.833L194.984,37.763L194.772,37.695L194.56,37.628L194.347,37.563L194.134,37.499L193.92,37.436L193.706,37.374L193.491,37.314L193.275,37.255L193.059,37.197L192.843,37.14L192.626,37.085L192.408,37.031L192.19,36.979L191.972,36.928L191.753,36.878L191.533,36.829L191.313,36.782L191.092,36.736L190.871,36.691L190.65,36.648L190.428,36.606L190.205,36.566L189.982,36.527L189.759,36.489L189.311,36.417L189.086,36.384L188.861,36.352L188.635,36.321L188.409,36.291L188.182,36.263L187.955,36.236L187.728,36.211L187.5,36.187L187.272,36.165L187.043,36.144L186.814,36.124L186.584,36.106L186.355,36.089L186.124,36.074L185.894,36.06L185.662,36.047L185.431,36.036L184.967,36.018L184.734,36.012L184.501,36.007L184.268,36.003L184.034,36.001L183.798,36L72.202,36Z" style="fill:rgb(31,31,31);"/>
        </g>
    </g>
</svg>
