<?xml version="1.0" encoding="UTF-8" standalone="no"?><!DOCTYPE svg PUBLIC "-//W3C//DTD SVG 1.1//EN" "http://www.w3.org/Graphics/SVG/1.1/DTD/svg11.dtd"><svg width="100%" height="100%" viewBox="0 0 256 256" version="1.1" xmlns="http://www.w3.org/2000/svg" xmlns:xlink="http://www.w3.org/1999/xlink" xml:space="preserve" xmlns:serif="http://www.serif.com/" style="fill-rule:evenodd;clip-rule:evenodd;stroke-linejoin:round;stroke-miterlimit:1.41421;"><g id="Checkbox-Selected" serif:id="Checkbox Selected"><path id="Base" d="M233,65c0,-23.18 -18.82,-42 -42,-42l-126,0c-23.18,0 -42,18.82 -42,42l0,126c0,23.18 18.82,42 42,42l126,0c23.18,0 42,-18.82 42,-42l0,-126Z" style="fill:#eceff4;"/><path id="Checked-Icon" serif:id="Checked Icon" d="M219.631,44.881l-129.866,131.124l-53.506,-54.127c-6.465,-6.53 -16.946,-6.53 -23.41,0c-6.465,6.529 -6.465,17.121 0,23.659l64.866,65.602c3.319,3.349 7.696,4.955 12.05,4.866c4.351,0.089 8.729,-1.517 12.049,-4.866l141.228,-142.608c6.466,-6.534 6.466,-17.121 0,-23.65c-6.465,-6.543 -16.945,-6.543 -23.411,0Z" style="fill:#fff;stroke:#8493a6;stroke-width:14px;"/></g></svg>