<?xml version="1.0" encoding="UTF-8" standalone="no"?><!DOCTYPE svg PUBLIC "-//W3C//DTD SVG 1.1//EN" "http://www.w3.org/Graphics/SVG/1.1/DTD/svg11.dtd"><svg width="100%" height="100%" viewBox="0 0 256 256" version="1.1" xmlns="http://www.w3.org/2000/svg" xmlns:xlink="http://www.w3.org/1999/xlink" xml:space="preserve" xmlns:serif="http://www.serif.com/" style="fill-rule:evenodd;clip-rule:evenodd;stroke-linejoin:round;stroke-miterlimit:1.41421;"><g id="Checkbox-Selected" serif:id="Checkbox Selected"><g id="Base"><path d="M221,72.2c0,-20.531 -16.669,-37.2 -37.2,-37.2l-111.6,0c-20.531,0 -37.2,16.669 -37.2,37.2l0,111.6c0,20.531 16.669,37.2 37.2,37.2l111.6,0c20.531,0 37.2,-16.669 37.2,-37.2l0,-111.6Z" style="fill:#eceff4;"/><path d="M184.04,35.001l0.24,0.002l0.24,0.004l0.24,0.005l0.238,0.007l0.239,0.008l0.238,0.01l0.238,0.011l0.238,0.013l0.237,0.015l0.236,0.015l0.236,0.018l0.236,0.018l0.236,0.02l0.235,0.022l0.234,0.023l0.234,0.025l0.234,0.026l0.233,0.027l0.233,0.029l0.233,0.03l0.232,0.032l0.231,0.033l0.231,0.035l0.231,0.036l0.23,0.037l0.229,0.039l0.229,0.04l0.229,0.042l0.228,0.043l0.228,0.045l0.227,0.045l0.227,0.048l0.226,0.048l0.226,0.05l0.225,0.051l0.224,0.053l0.225,0.054l0.223,0.055l0.223,0.057l0.223,0.058l0.222,0.059l0.221,0.061l0.221,0.062l0.22,0.064l0.22,0.064l0.219,0.066l0.219,0.068l0.218,0.068l0.218,0.07l0.216,0.071l0.217,0.073l0.216,0.074l0.215,0.075l0.214,0.076l0.214,0.078l0.213,0.079l0.213,0.08l0.212,0.081l0.212,0.083l0.21,0.084l0.211,0.085l0.209,0.087l0.209,0.087l0.208,0.089l0.208,0.09l0.207,0.092l0.206,0.092l0.206,0.094l0.205,0.095l0.204,0.096l0.204,0.098l0.203,0.098l0.202,0.1l0.201,0.101l0.201,0.102l0.2,0.104l0.2,0.104l0.199,0.106l0.198,0.107l0.197,0.108l0.196,0.109l0.196,0.11l0.195,0.112l0.195,0.112l0.193,0.114l0.193,0.115l0.192,0.116l0.192,0.117l0.19,0.118l0.19,0.119l0.189,0.121l0.189,0.122l0.187,0.122l0.187,0.124l0.186,0.125l0.185,0.126l0.184,0.127l0.184,0.128l0.183,0.129l0.182,0.13l0.181,0.132l0.18,0.132l0.179,0.133l0.179,0.135l0.178,0.135l0.177,0.137l0.176,0.137l0.175,0.139l0.175,0.14l0.173,0.14l0.173,0.142l0.172,0.143l0.171,0.144l0.17,0.144l0.169,0.146l0.168,0.147l0.168,0.147l0.166,0.149l0.166,0.15l0.165,0.15l0.164,0.152l0.162,0.153l0.162,0.153l0.162,0.155l0.16,0.155l0.159,0.156l0.158,0.158l0.158,0.158l0.156,0.159l0.155,0.16l0.155,0.162l0.153,0.162l0.153,0.162l0.152,0.164l0.15,0.165l0.15,0.166l0.149,0.166l0.147,0.168l0.147,0.168l0.146,0.169l0.144,0.17l0.144,0.171l0.143,0.172l0.142,0.173l0.14,0.173l0.14,0.175l0.139,0.175l0.137,0.176l0.137,0.177l0.135,0.178l0.135,0.179l0.133,0.179l0.132,0.18l0.132,0.181l0.13,0.182l0.129,0.183l0.128,0.184l0.127,0.184l0.126,0.185l0.125,0.186l0.124,0.187l0.122,0.187l0.122,0.189l0.121,0.189l0.119,0.19l0.118,0.19l0.117,0.192l0.116,0.192l0.115,0.193l0.114,0.193l0.112,0.195l0.112,0.195l0.11,0.196l0.109,0.196l0.108,0.197l0.107,0.198l0.106,0.199l0.104,0.2l0.104,0.2l0.102,0.201l0.101,0.201l0.1,0.202l0.098,0.203l0.098,0.204l0.096,0.204l0.095,0.205l0.094,0.206l0.092,0.206l0.092,0.207l0.09,0.208l0.089,0.208l0.087,0.209l0.087,0.209l0.085,0.211l0.084,0.21l0.083,0.212l0.081,0.212l0.08,0.213l0.079,0.213l0.078,0.214l0.076,0.214l0.075,0.215l0.074,0.216l0.073,0.217l0.071,0.216l0.07,0.218l0.068,0.218l0.068,0.219l0.066,0.219l0.064,0.22l0.064,0.22l0.062,0.221l0.061,0.221l0.059,0.222l0.058,0.223l0.057,0.223l0.055,0.223l0.054,0.225l0.053,0.224l0.051,0.225l0.05,0.226l0.048,0.226l0.048,0.227l0.045,0.227l0.045,0.228l0.043,0.228l0.042,0.229l0.04,0.229l0.039,0.229l0.037,0.23l0.036,0.231l0.035,0.231l0.033,0.231l0.032,0.232l0.03,0.233l0.029,0.233l0.027,0.233l0.026,0.234l0.025,0.234l0.023,0.234l0.022,0.235l0.02,0.236l0.018,0.236l0.018,0.236l0.015,0.236l0.015,0.237l0.013,0.238l0.011,0.238l0.01,0.238l0.008,0.239l0.007,0.238l0.005,0.24l0.004,0.24l0.002,0.24l0.001,0.24l0,111.6l-0.001,0.24l-0.002,0.24l-0.004,0.24l-0.005,0.24l-0.007,0.238l-0.008,0.239l-0.01,0.238l-0.011,0.238l-0.013,0.238l-0.015,0.237l-0.015,0.236l-0.018,0.236l-0.018,0.236l-0.02,0.236l-0.022,0.235l-0.023,0.234l-0.025,0.234l-0.026,0.234l-0.027,0.233l-0.029,0.233l-0.03,0.233l-0.032,0.232l-0.033,0.231l-0.035,0.231l-0.036,0.231l-0.037,0.23l-0.039,0.229l-0.04,0.229l-0.042,0.229l-0.043,0.228l-0.045,0.228l-0.045,0.227l-0.048,0.227l-0.048,0.226l-0.05,0.226l-0.051,0.225l-0.053,0.224l-0.054,0.225l-0.055,0.223l-0.057,0.223l-0.058,0.223l-0.059,0.222l-0.061,0.221l-0.062,0.221l-0.064,0.22l-0.064,0.22l-0.066,0.219l-0.068,0.219l-0.068,0.218l-0.07,0.218l-0.071,0.216l-0.073,0.217l-0.074,0.216l-0.075,0.215l-0.076,0.214l-0.078,0.214l-0.079,0.213l-0.08,0.213l-0.081,0.212l-0.083,0.212l-0.084,0.21l-0.085,0.211l-0.087,0.209l-0.087,0.209l-0.089,0.208l-0.09,0.208l-0.092,0.207l-0.092,0.206l-0.094,0.206l-0.095,0.205l-0.096,0.204l-0.098,0.204l-0.098,0.203l-0.1,0.202l-0.101,0.201l-0.102,0.201l-0.104,0.2l-0.104,0.2l-0.106,0.199l-0.107,0.198l-0.108,0.197l-0.109,0.196l-0.11,0.196l-0.112,0.195l-0.112,0.195l-0.114,0.193l-0.115,0.193l-0.116,0.192l-0.117,0.192l-0.118,0.19l-0.119,0.19l-0.121,0.189l-0.122,0.189l-0.122,0.187l-0.124,0.187l-0.125,0.186l-0.126,0.185l-0.127,0.184l-0.128,0.184l-0.129,0.183l-0.13,0.182l-0.132,0.181l-0.132,0.18l-0.133,0.179l-0.135,0.179l-0.135,0.178l-0.137,0.177l-0.137,0.176l-0.139,0.175l-0.14,0.175l-0.14,0.173l-0.142,0.173l-0.143,0.172l-0.144,0.171l-0.144,0.17l-0.146,0.169l-0.147,0.168l-0.147,0.168l-0.149,0.166l-0.15,0.166l-0.15,0.165l-0.152,0.164l-0.153,0.162l-0.153,0.162l-0.155,0.162l-0.155,0.16l-0.156,0.159l-0.158,0.158l-0.158,0.158l-0.159,0.156l-0.16,0.155l-0.162,0.155l-0.162,0.153l-0.162,0.153l-0.164,0.152l-0.165,0.15l-0.166,0.15l-0.166,0.149l-0.168,0.147l-0.168,0.147l-0.169,0.146l-0.17,0.144l-0.171,0.144l-0.172,0.143l-0.173,0.142l-0.173,0.14l-0.175,0.14l-0.175,0.139l-0.176,0.137l-0.177,0.137l-0.178,0.135l-0.179,0.135l-0.179,0.133l-0.18,0.132l-0.181,0.132l-0.182,0.13l-0.183,0.129l-0.184,0.128l-0.184,0.127l-0.185,0.126l-0.186,0.125l-0.187,0.124l-0.187,0.122l-0.189,0.122l-0.189,0.121l-0.19,0.119l-0.19,0.118l-0.192,0.117l-0.192,0.116l-0.193,0.115l-0.193,0.114l-0.195,0.112l-0.195,0.112l-0.196,0.11l-0.196,0.109l-0.197,0.108l-0.198,0.107l-0.199,0.106l-0.2,0.104l-0.2,0.104l-0.201,0.102l-0.201,0.101l-0.202,0.1l-0.203,0.098l-0.204,0.098l-0.204,0.096l-0.205,0.095l-0.206,0.094l-0.206,0.092l-0.207,0.092l-0.208,0.09l-0.208,0.089l-0.209,0.087l-0.209,0.087l-0.211,0.085l-0.21,0.084l-0.212,0.083l-0.212,0.081l-0.213,0.08l-0.213,0.079l-0.214,0.078l-0.214,0.076l-0.215,0.075l-0.216,0.074l-0.217,0.073l-0.216,0.071l-0.218,0.07l-0.218,0.068l-0.219,0.068l-0.219,0.066l-0.22,0.064l-0.22,0.064l-0.221,0.062l-0.221,0.061l-0.222,0.059l-0.223,0.058l-0.223,0.057l-0.223,0.055l-0.225,0.054l-0.224,0.053l-0.225,0.051l-0.226,0.05l-0.226,0.048l-0.227,0.048l-0.227,0.045l-0.228,0.045l-0.228,0.043l-0.229,0.042l-0.229,0.04l-0.229,0.039l-0.23,0.037l-0.231,0.036l-0.231,0.035l-0.231,0.033l-0.232,0.032l-0.233,0.03l-0.233,0.029l-0.233,0.027l-0.234,0.026l-0.234,0.025l-0.234,0.023l-0.235,0.022l-0.236,0.02l-0.236,0.018l-0.236,0.018l-0.236,0.015l-0.237,0.015l-0.238,0.013l-0.238,0.011l-0.238,0.01l-0.239,0.008l-0.238,0.007l-0.24,0.005l-0.24,0.004l-0.24,0.002l-0.24,0.001l-111.6,0l-0.24,-0.001l-0.24,-0.002l-0.24,-0.004l-0.24,-0.005l-0.238,-0.007l-0.239,-0.008l-0.238,-0.01l-0.238,-0.011l-0.238,-0.013l-0.237,-0.015l-0.236,-0.015l-0.236,-0.018l-0.236,-0.018l-0.236,-0.02l-0.235,-0.022l-0.234,-0.023l-0.234,-0.025l-0.234,-0.026l-0.233,-0.027l-0.233,-0.029l-0.233,-0.03l-0.232,-0.032l-0.231,-0.033l-0.231,-0.035l-0.231,-0.036l-0.23,-0.037l-0.229,-0.039l-0.229,-0.04l-0.229,-0.042l-0.228,-0.043l-0.228,-0.045l-0.227,-0.045l-0.227,-0.048l-0.226,-0.048l-0.226,-0.05l-0.225,-0.051l-0.224,-0.053l-0.225,-0.054l-0.223,-0.055l-0.223,-0.057l-0.223,-0.058l-0.222,-0.059l-0.221,-0.061l-0.221,-0.062l-0.22,-0.064l-0.22,-0.064l-0.219,-0.066l-0.219,-0.068l-0.218,-0.068l-0.218,-0.07l-0.216,-0.071l-0.217,-0.073l-0.216,-0.074l-0.215,-0.075l-0.214,-0.076l-0.214,-0.078l-0.213,-0.079l-0.213,-0.08l-0.212,-0.081l-0.212,-0.083l-0.21,-0.084l-0.211,-0.085l-0.209,-0.087l-0.209,-0.087l-0.208,-0.089l-0.208,-0.09l-0.207,-0.092l-0.206,-0.092l-0.206,-0.094l-0.205,-0.095l-0.204,-0.096l-0.204,-0.098l-0.203,-0.098l-0.202,-0.1l-0.201,-0.101l-0.201,-0.102l-0.2,-0.104l-0.2,-0.104l-0.199,-0.106l-0.198,-0.107l-0.197,-0.108l-0.196,-0.109l-0.196,-0.11l-0.195,-0.112l-0.195,-0.112l-0.193,-0.114l-0.193,-0.115l-0.192,-0.116l-0.192,-0.117l-0.19,-0.118l-0.19,-0.119l-0.189,-0.121l-0.189,-0.122l-0.187,-0.122l-0.187,-0.124l-0.186,-0.125l-0.185,-0.126l-0.184,-0.127l-0.184,-0.128l-0.183,-0.129l-0.182,-0.13l-0.181,-0.132l-0.18,-0.132l-0.179,-0.133l-0.179,-0.135l-0.178,-0.135l-0.177,-0.137l-0.176,-0.137l-0.175,-0.139l-0.175,-0.14l-0.173,-0.14l-0.173,-0.142l-0.172,-0.143l-0.171,-0.144l-0.17,-0.144l-0.169,-0.146l-0.168,-0.147l-0.168,-0.147l-0.166,-0.149l-0.166,-0.15l-0.165,-0.15l-0.164,-0.152l-0.162,-0.153l-0.162,-0.153l-0.162,-0.155l-0.16,-0.155l-0.159,-0.156l-0.158,-0.158l-0.158,-0.158l-0.156,-0.159l-0.155,-0.16l-0.155,-0.162l-0.153,-0.162l-0.153,-0.162l-0.152,-0.164l-0.15,-0.165l-0.15,-0.166l-0.149,-0.166l-0.147,-0.168l-0.147,-0.168l-0.146,-0.169l-0.144,-0.17l-0.144,-0.171l-0.143,-0.172l-0.142,-0.173l-0.14,-0.173l-0.14,-0.175l-0.139,-0.175l-0.137,-0.176l-0.137,-0.177l-0.135,-0.178l-0.135,-0.179l-0.133,-0.179l-0.132,-0.18l-0.132,-0.181l-0.13,-0.182l-0.129,-0.183l-0.128,-0.184l-0.127,-0.184l-0.126,-0.185l-0.125,-0.186l-0.124,-0.187l-0.122,-0.187l-0.122,-0.189l-0.121,-0.189l-0.119,-0.19l-0.118,-0.19l-0.117,-0.192l-0.116,-0.192l-0.115,-0.193l-0.114,-0.193l-0.112,-0.195l-0.112,-0.195l-0.11,-0.196l-0.109,-0.196l-0.108,-0.197l-0.107,-0.198l-0.106,-0.199l-0.104,-0.2l-0.104,-0.2l-0.102,-0.201l-0.101,-0.201l-0.1,-0.202l-0.098,-0.203l-0.098,-0.204l-0.096,-0.204l-0.095,-0.205l-0.094,-0.206l-0.092,-0.206l-0.092,-0.207l-0.09,-0.208l-0.089,-0.208l-0.087,-0.209l-0.087,-0.209l-0.085,-0.211l-0.084,-0.21l-0.083,-0.212l-0.081,-0.212l-0.08,-0.213l-0.079,-0.213l-0.078,-0.214l-0.076,-0.214l-0.075,-0.215l-0.074,-0.216l-0.073,-0.217l-0.071,-0.216l-0.07,-0.218l-0.068,-0.218l-0.068,-0.219l-0.066,-0.219l-0.064,-0.22l-0.064,-0.22l-0.062,-0.221l-0.061,-0.221l-0.059,-0.222l-0.058,-0.223l-0.057,-0.223l-0.055,-0.223l-0.054,-0.225l-0.053,-0.224l-0.051,-0.225l-0.05,-0.226l-0.048,-0.226l-0.048,-0.227l-0.045,-0.227l-0.045,-0.228l-0.043,-0.228l-0.042,-0.229l-0.04,-0.229l-0.039,-0.229l-0.037,-0.23l-0.036,-0.231l-0.035,-0.231l-0.033,-0.231l-0.032,-0.232l-0.03,-0.233l-0.029,-0.233l-0.027,-0.233l-0.026,-0.234l-0.025,-0.234l-0.023,-0.234l-0.022,-0.235l-0.02,-0.236l-0.018,-0.236l-0.018,-0.236l-0.015,-0.236l-0.015,-0.237l-0.013,-0.238l-0.011,-0.238l-0.01,-0.238l-0.008,-0.239l-0.007,-0.238l-0.005,-0.24l-0.004,-0.24l-0.002,-0.24l-0.001,-0.24l0,-111.6l0.001,-0.24l0.002,-0.24l0.004,-0.24l0.005,-0.24l0.007,-0.238l0.008,-0.239l0.01,-0.238l0.011,-0.238l0.013,-0.238l0.015,-0.237l0.015,-0.236l0.018,-0.236l0.018,-0.236l0.02,-0.236l0.022,-0.235l0.023,-0.234l0.025,-0.234l0.026,-0.234l0.027,-0.233l0.029,-0.233l0.03,-0.233l0.032,-0.232l0.033,-0.231l0.035,-0.231l0.036,-0.231l0.037,-0.23l0.039,-0.229l0.04,-0.229l0.042,-0.229l0.043,-0.228l0.045,-0.228l0.045,-0.227l0.048,-0.227l0.048,-0.226l0.05,-0.226l0.051,-0.225l0.053,-0.224l0.054,-0.225l0.055,-0.223l0.057,-0.223l0.058,-0.223l0.059,-0.222l0.061,-0.221l0.062,-0.221l0.064,-0.22l0.064,-0.22l0.066,-0.219l0.068,-0.219l0.068,-0.218l0.07,-0.218l0.071,-0.216l0.073,-0.217l0.074,-0.216l0.075,-0.215l0.076,-0.214l0.078,-0.214l0.079,-0.213l0.08,-0.213l0.081,-0.212l0.083,-0.212l0.084,-0.21l0.085,-0.211l0.087,-0.209l0.087,-0.209l0.089,-0.208l0.09,-0.208l0.092,-0.207l0.092,-0.206l0.094,-0.206l0.095,-0.205l0.096,-0.204l0.098,-0.204l0.098,-0.203l0.1,-0.202l0.101,-0.201l0.102,-0.201l0.104,-0.2l0.104,-0.2l0.106,-0.199l0.107,-0.198l0.108,-0.197l0.109,-0.196l0.11,-0.196l0.112,-0.195l0.112,-0.195l0.114,-0.193l0.115,-0.193l0.116,-0.192l0.117,-0.192l0.118,-0.19l0.119,-0.19l0.121,-0.189l0.122,-0.189l0.122,-0.187l0.124,-0.187l0.125,-0.186l0.126,-0.185l0.127,-0.184l0.128,-0.184l0.129,-0.183l0.13,-0.182l0.132,-0.181l0.132,-0.18l0.133,-0.179l0.135,-0.179l0.135,-0.178l0.137,-0.177l0.137,-0.176l0.139,-0.175l0.14,-0.175l0.14,-0.173l0.142,-0.173l0.143,-0.172l0.144,-0.171l0.144,-0.17l0.146,-0.169l0.147,-0.168l0.147,-0.168l0.149,-0.166l0.15,-0.166l0.15,-0.165l0.152,-0.164l0.153,-0.162l0.153,-0.162l0.155,-0.162l0.155,-0.16l0.156,-0.159l0.158,-0.158l0.158,-0.158l0.159,-0.156l0.16,-0.155l0.162,-0.155l0.162,-0.153l0.162,-0.153l0.164,-0.152l0.165,-0.15l0.166,-0.15l0.166,-0.149l0.168,-0.147l0.168,-0.147l0.169,-0.146l0.17,-0.144l0.171,-0.144l0.172,-0.143l0.173,-0.142l0.173,-0.14l0.175,-0.14l0.175,-0.139l0.176,-0.137l0.177,-0.137l0.178,-0.135l0.179,-0.135l0.179,-0.133l0.18,-0.132l0.181,-0.132l0.182,-0.13l0.183,-0.129l0.184,-0.128l0.184,-0.127l0.185,-0.126l0.186,-0.125l0.187,-0.124l0.187,-0.122l0.189,-0.122l0.189,-0.121l0.19,-0.119l0.19,-0.118l0.192,-0.117l0.192,-0.116l0.193,-0.115l0.193,-0.114l0.195,-0.112l0.195,-0.112l0.196,-0.11l0.196,-0.109l0.197,-0.108l0.198,-0.107l0.199,-0.106l0.2,-0.104l0.2,-0.104l0.201,-0.102l0.201,-0.101l0.202,-0.1l0.203,-0.098l0.204,-0.098l0.204,-0.096l0.205,-0.095l0.206,-0.094l0.206,-0.092l0.207,-0.092l0.208,-0.09l0.208,-0.089l0.209,-0.087l0.209,-0.087l0.211,-0.085l0.21,-0.084l0.212,-0.083l0.212,-0.081l0.213,-0.08l0.213,-0.079l0.214,-0.078l0.214,-0.076l0.215,-0.075l0.216,-0.074l0.217,-0.073l0.216,-0.071l0.218,-0.07l0.218,-0.068l0.219,-0.068l0.219,-0.066l0.22,-0.064l0.22,-0.064l0.221,-0.062l0.221,-0.061l0.222,-0.059l0.223,-0.058l0.223,-0.057l0.223,-0.055l0.225,-0.054l0.224,-0.053l0.225,-0.051l0.226,-0.05l0.226,-0.048l0.227,-0.048l0.227,-0.045l0.228,-0.045l0.228,-0.043l0.229,-0.042l0.229,-0.04l0.229,-0.039l0.23,-0.037l0.231,-0.036l0.231,-0.035l0.231,-0.033l0.232,-0.032l0.233,-0.03l0.233,-0.029l0.233,-0.027l0.234,-0.026l0.234,-0.025l0.234,-0.023l0.235,-0.022l0.236,-0.02l0.236,-0.018l0.236,-0.018l0.236,-0.015l0.237,-0.015l0.238,-0.013l0.238,-0.011l0.238,-0.01l0.239,-0.008l0.238,-0.007l0.24,-0.005l0.24,-0.004l0.24,-0.002l0.24,-0.001l111.6,0l0.24,0.001Zm-111.838,0.999l-0.236,0.001l-0.234,0.002l-0.233,0.004l-0.233,0.005l-0.233,0.006l-0.232,0.009l-0.232,0.009l-0.231,0.011l-0.232,0.013l-0.23,0.014l-0.231,0.015l-0.229,0.017l-0.23,0.018l-0.229,0.02l-0.229,0.021l-0.228,0.022l-0.228,0.024l-0.227,0.025l-0.227,0.027l-0.227,0.028l-0.226,0.03l-0.226,0.031l-0.225,0.032l-0.225,0.033l-0.224,0.036l-0.224,0.036l-0.223,0.038l-0.223,0.039l-0.223,0.04l-0.222,0.042l-0.221,0.043l-0.221,0.045l-0.221,0.046l-0.22,0.047l-0.22,0.049l-0.219,0.05l-0.218,0.051l-0.218,0.052l-0.218,0.054l-0.217,0.055l-0.216,0.057l-0.216,0.058l-0.216,0.059l-0.215,0.06l-0.214,0.062l-0.214,0.063l-0.213,0.064l-0.213,0.065l-0.212,0.067l-0.212,0.068l-0.211,0.07l-0.21,0.07l-0.21,0.072l-0.209,0.073l-0.209,0.074l-0.208,0.076l-0.208,0.077l-0.206,0.078l-0.207,0.079l-0.206,0.08l-0.205,0.082l-0.204,0.083l-0.204,0.084l-0.203,0.085l-0.203,0.087l-0.202,0.087l-0.201,0.089l-0.201,0.09l-0.2,0.092l-0.2,0.092l-0.198,0.094l-0.198,0.094l-0.198,0.096l-0.197,0.097l-0.196,0.099l-0.195,0.099l-0.195,0.101l-0.194,0.101l-0.193,0.103l-0.193,0.104l-0.192,0.105l-0.191,0.107l-0.191,0.107l-0.19,0.108l-0.189,0.11l-0.188,0.111l-0.188,0.111l-0.187,0.113l-0.186,0.114l-0.186,0.115l-0.184,0.116l-0.184,0.118l-0.184,0.118l-0.182,0.119l-0.182,0.121l-0.181,0.121l-0.18,0.123l-0.179,0.124l-0.179,0.124l-0.178,0.126l-0.177,0.127l-0.176,0.127l-0.176,0.129l-0.174,0.13l-0.174,0.131l-0.173,0.132l-0.173,0.133l-0.171,0.134l-0.171,0.135l-0.169,0.136l-0.169,0.136l-0.168,0.138l-0.168,0.139l-0.166,0.14l-0.166,0.141l-0.164,0.142l-0.164,0.143l-0.163,0.143l-0.162,0.145l-0.161,0.146l-0.161,0.146l-0.159,0.148l-0.159,0.148l-0.157,0.15l-0.157,0.15l-0.156,0.152l-0.155,0.152l-0.154,0.153l-0.153,0.154l-0.152,0.155l-0.152,0.156l-0.15,0.157l-0.15,0.157l-0.148,0.159l-0.148,0.159l-0.146,0.161l-0.146,0.161l-0.145,0.162l-0.143,0.163l-0.143,0.164l-0.142,0.164l-0.141,0.166l-0.14,0.166l-0.139,0.168l-0.138,0.168l-0.136,0.169l-0.136,0.169l-0.135,0.171l-0.134,0.171l-0.133,0.173l-0.132,0.173l-0.131,0.174l-0.13,0.174l-0.129,0.176l-0.127,0.176l-0.127,0.177l-0.126,0.178l-0.124,0.179l-0.124,0.179l-0.123,0.18l-0.121,0.181l-0.121,0.182l-0.119,0.182l-0.118,0.184l-0.118,0.184l-0.116,0.184l-0.115,0.186l-0.114,0.186l-0.113,0.187l-0.111,0.188l-0.111,0.188l-0.11,0.189l-0.108,0.19l-0.107,0.191l-0.107,0.191l-0.105,0.192l-0.104,0.193l-0.103,0.193l-0.101,0.194l-0.101,0.195l-0.099,0.195l-0.099,0.196l-0.097,0.197l-0.096,0.198l-0.094,0.198l-0.094,0.198l-0.092,0.2l-0.092,0.2l-0.09,0.201l-0.089,0.201l-0.087,0.202l-0.087,0.203l-0.085,0.203l-0.084,0.204l-0.083,0.204l-0.082,0.205l-0.08,0.206l-0.079,0.207l-0.078,0.206l-0.077,0.208l-0.076,0.208l-0.074,0.209l-0.073,0.209l-0.072,0.21l-0.07,0.21l-0.07,0.211l-0.068,0.212l-0.067,0.212l-0.065,0.213l-0.064,0.213l-0.063,0.214l-0.062,0.214l-0.06,0.215l-0.059,0.216l-0.058,0.216l-0.057,0.216l-0.055,0.217l-0.054,0.218l-0.052,0.218l-0.051,0.218l-0.05,0.219l-0.049,0.22l-0.047,0.22l-0.046,0.221l-0.045,0.221l-0.043,0.221l-0.042,0.222l-0.04,0.223l-0.039,0.223l-0.038,0.223l-0.036,0.224l-0.036,0.224l-0.033,0.225l-0.032,0.225l-0.031,0.226l-0.03,0.226l-0.028,0.227l-0.027,0.227l-0.025,0.227l-0.024,0.228l-0.022,0.228l-0.021,0.229l-0.02,0.229l-0.018,0.23l-0.017,0.229l-0.015,0.231l-0.014,0.23l-0.013,0.232l-0.011,0.231l-0.009,0.232l-0.009,0.232l-0.006,0.233l-0.005,0.233l-0.004,0.233l-0.002,0.234l-0.001,0.236l0,111.596l0.001,0.236l0.002,0.234l0.004,0.233l0.005,0.233l0.006,0.233l0.009,0.232l0.009,0.232l0.011,0.231l0.013,0.232l0.014,0.23l0.015,0.231l0.017,0.229l0.018,0.23l0.02,0.229l0.021,0.229l0.022,0.228l0.024,0.228l0.025,0.227l0.027,0.227l0.028,0.227l0.03,0.226l0.031,0.226l0.032,0.225l0.033,0.225l0.036,0.224l0.036,0.224l0.038,0.223l0.039,0.223l0.04,0.223l0.042,0.222l0.043,0.221l0.045,0.221l0.046,0.221l0.047,0.22l0.049,0.22l0.05,0.219l0.051,0.218l0.052,0.218l0.054,0.218l0.055,0.217l0.057,0.216l0.058,0.216l0.059,0.216l0.06,0.215l0.062,0.214l0.063,0.214l0.064,0.213l0.065,0.213l0.067,0.212l0.068,0.212l0.07,0.211l0.07,0.21l0.072,0.21l0.073,0.209l0.074,0.209l0.076,0.208l0.077,0.208l0.078,0.206l0.079,0.207l0.08,0.206l0.082,0.205l0.083,0.204l0.084,0.204l0.085,0.203l0.087,0.203l0.087,0.202l0.089,0.201l0.09,0.201l0.092,0.2l0.092,0.2l0.094,0.198l0.094,0.198l0.096,0.198l0.097,0.197l0.099,0.196l0.099,0.195l0.101,0.195l0.101,0.194l0.103,0.193l0.104,0.193l0.105,0.192l0.107,0.191l0.107,0.191l0.108,0.19l0.11,0.189l0.111,0.188l0.111,0.188l0.113,0.187l0.114,0.186l0.115,0.186l0.116,0.184l0.118,0.184l0.118,0.184l0.119,0.182l0.121,0.182l0.121,0.181l0.123,0.18l0.124,0.179l0.124,0.179l0.126,0.178l0.127,0.177l0.127,0.176l0.129,0.176l0.13,0.174l0.131,0.174l0.132,0.173l0.133,0.173l0.134,0.171l0.135,0.171l0.136,0.169l0.136,0.169l0.138,0.168l0.139,0.168l0.14,0.166l0.141,0.166l0.142,0.164l0.143,0.164l0.143,0.163l0.145,0.162l0.146,0.161l0.146,0.161l0.148,0.159l0.148,0.159l0.15,0.157l0.15,0.157l0.152,0.156l0.152,0.155l0.153,0.154l0.154,0.153l0.155,0.152l0.156,0.152l0.157,0.15l0.157,0.15l0.159,0.148l0.159,0.148l0.161,0.146l0.161,0.146l0.162,0.145l0.163,0.143l0.164,0.143l0.164,0.142l0.166,0.141l0.166,0.14l0.168,0.139l0.168,0.138l0.169,0.136l0.169,0.136l0.171,0.135l0.171,0.134l0.173,0.133l0.173,0.132l0.174,0.131l0.174,0.13l0.176,0.129l0.176,0.127l0.177,0.127l0.178,0.126l0.178,0.124l0.18,0.124l0.18,0.123l0.181,0.121l0.182,0.121l0.182,0.119l0.184,0.118l0.184,0.118l0.184,0.116l0.186,0.115l0.186,0.114l0.187,0.113l0.188,0.111l0.188,0.111l0.189,0.11l0.19,0.108l0.191,0.107l0.191,0.107l0.192,0.105l0.193,0.104l0.193,0.103l0.194,0.101l0.195,0.101l0.195,0.099l0.196,0.099l0.197,0.097l0.198,0.096l0.198,0.094l0.198,0.094l0.2,0.092l0.2,0.092l0.201,0.09l0.201,0.089l0.202,0.087l0.203,0.087l0.203,0.085l0.204,0.084l0.204,0.083l0.205,0.082l0.206,0.08l0.206,0.079l0.207,0.078l0.208,0.077l0.208,0.076l0.209,0.074l0.209,0.073l0.21,0.072l0.21,0.07l0.211,0.07l0.212,0.068l0.212,0.067l0.213,0.065l0.213,0.064l0.214,0.063l0.214,0.062l0.215,0.06l0.216,0.059l0.216,0.058l0.216,0.057l0.217,0.055l0.218,0.054l0.218,0.052l0.218,0.051l0.219,0.05l0.22,0.049l0.22,0.047l0.221,0.046l0.221,0.045l0.221,0.043l0.222,0.042l0.223,0.04l0.223,0.039l0.223,0.038l0.224,0.036l0.224,0.036l0.225,0.033l0.225,0.032l0.226,0.031l0.226,0.03l0.227,0.028l0.227,0.027l0.227,0.025l0.228,0.024l0.228,0.022l0.229,0.021l0.229,0.02l0.23,0.018l0.229,0.017l0.231,0.015l0.231,0.014l0.231,0.013l0.231,0.011l0.232,0.009l0.232,0.009l0.233,0.006l0.233,0.005l0.233,0.004l0.234,0.002l0.236,0.001l111.596,0l0.236,-0.001l0.234,-0.002l0.233,-0.004l0.233,-0.005l0.233,-0.006l0.232,-0.009l0.232,-0.009l0.231,-0.011l0.231,-0.013l0.231,-0.014l0.231,-0.015l0.229,-0.017l0.23,-0.018l0.229,-0.02l0.229,-0.021l0.228,-0.022l0.228,-0.024l0.227,-0.025l0.227,-0.027l0.227,-0.028l0.226,-0.03l0.226,-0.031l0.225,-0.032l0.225,-0.033l0.224,-0.036l0.224,-0.036l0.223,-0.038l0.223,-0.039l0.223,-0.04l0.222,-0.042l0.221,-0.043l0.221,-0.045l0.221,-0.046l0.22,-0.047l0.22,-0.049l0.219,-0.05l0.218,-0.051l0.218,-0.052l0.218,-0.054l0.217,-0.055l0.216,-0.057l0.216,-0.058l0.216,-0.059l0.215,-0.06l0.214,-0.062l0.214,-0.063l0.213,-0.064l0.213,-0.065l0.212,-0.067l0.212,-0.068l0.211,-0.07l0.21,-0.07l0.21,-0.072l0.209,-0.073l0.209,-0.074l0.208,-0.076l0.208,-0.077l0.207,-0.078l0.206,-0.079l0.206,-0.08l0.205,-0.082l0.204,-0.083l0.204,-0.084l0.203,-0.085l0.203,-0.087l0.202,-0.087l0.201,-0.089l0.201,-0.09l0.2,-0.092l0.2,-0.092l0.198,-0.094l0.198,-0.094l0.198,-0.096l0.197,-0.097l0.196,-0.099l0.195,-0.099l0.195,-0.101l0.194,-0.101l0.193,-0.103l0.193,-0.104l0.192,-0.105l0.191,-0.107l0.191,-0.107l0.19,-0.108l0.189,-0.11l0.188,-0.111l0.188,-0.111l0.187,-0.113l0.186,-0.114l0.186,-0.115l0.184,-0.116l0.184,-0.118l0.184,-0.118l0.182,-0.119l0.182,-0.121l0.181,-0.121l0.18,-0.123l0.179,-0.124l0.179,-0.124l0.178,-0.126l0.177,-0.127l0.176,-0.127l0.176,-0.129l0.174,-0.13l0.174,-0.131l0.173,-0.132l0.173,-0.133l0.171,-0.134l0.171,-0.135l0.169,-0.136l0.169,-0.136l0.168,-0.138l0.168,-0.139l0.166,-0.14l0.166,-0.141l0.164,-0.142l0.164,-0.143l0.163,-0.143l0.162,-0.145l0.161,-0.146l0.161,-0.146l0.159,-0.148l0.159,-0.148l0.157,-0.15l0.157,-0.15l0.156,-0.152l0.155,-0.152l0.154,-0.153l0.153,-0.154l0.152,-0.155l0.152,-0.156l0.15,-0.157l0.15,-0.157l0.148,-0.159l0.148,-0.159l0.146,-0.161l0.146,-0.161l0.145,-0.162l0.143,-0.163l0.143,-0.164l0.142,-0.164l0.141,-0.166l0.14,-0.166l0.139,-0.168l0.138,-0.168l0.136,-0.169l0.136,-0.169l0.135,-0.171l0.134,-0.171l0.133,-0.173l0.132,-0.173l0.131,-0.174l0.13,-0.174l0.129,-0.176l0.127,-0.176l0.127,-0.177l0.126,-0.178l0.124,-0.179l0.124,-0.179l0.123,-0.18l0.121,-0.181l0.121,-0.182l0.119,-0.182l0.118,-0.184l0.118,-0.184l0.116,-0.184l0.115,-0.186l0.114,-0.186l0.113,-0.187l0.111,-0.188l0.111,-0.188l0.11,-0.189l0.108,-0.19l0.107,-0.191l0.107,-0.191l0.105,-0.192l0.104,-0.193l0.103,-0.193l0.101,-0.194l0.101,-0.195l0.099,-0.195l0.099,-0.196l0.097,-0.197l0.096,-0.198l0.094,-0.198l0.094,-0.198l0.092,-0.2l0.092,-0.2l0.09,-0.201l0.089,-0.201l0.087,-0.202l0.087,-0.203l0.085,-0.203l0.084,-0.204l0.083,-0.204l0.082,-0.205l0.08,-0.206l0.079,-0.206l0.078,-0.207l0.077,-0.208l0.076,-0.208l0.074,-0.209l0.073,-0.209l0.072,-0.21l0.07,-0.21l0.07,-0.211l0.068,-0.212l0.067,-0.212l0.065,-0.213l0.064,-0.213l0.063,-0.214l0.062,-0.214l0.06,-0.215l0.059,-0.216l0.058,-0.216l0.057,-0.216l0.055,-0.217l0.054,-0.218l0.052,-0.218l0.051,-0.218l0.05,-0.219l0.049,-0.22l0.047,-0.22l0.046,-0.221l0.045,-0.221l0.043,-0.221l0.042,-0.222l0.04,-0.223l0.039,-0.223l0.038,-0.223l0.036,-0.224l0.036,-0.224l0.033,-0.225l0.032,-0.225l0.031,-0.226l0.03,-0.226l0.028,-0.227l0.027,-0.227l0.025,-0.227l0.024,-0.228l0.022,-0.228l0.021,-0.229l0.02,-0.229l0.018,-0.23l0.017,-0.229l0.015,-0.231l0.014,-0.231l0.013,-0.231l0.011,-0.231l0.009,-0.232l0.009,-0.232l0.006,-0.233l0.005,-0.233l0.004,-0.233l0.002,-0.234l0.001,-0.236l0,-111.596l-0.001,-0.236l-0.002,-0.234l-0.004,-0.233l-0.005,-0.233l-0.006,-0.233l-0.009,-0.232l-0.009,-0.232l-0.011,-0.231l-0.013,-0.231l-0.014,-0.231l-0.015,-0.231l-0.017,-0.229l-0.018,-0.23l-0.02,-0.229l-0.021,-0.229l-0.022,-0.228l-0.024,-0.228l-0.025,-0.227l-0.027,-0.227l-0.028,-0.227l-0.03,-0.226l-0.031,-0.226l-0.032,-0.225l-0.033,-0.225l-0.036,-0.224l-0.036,-0.224l-0.038,-0.223l-0.039,-0.223l-0.04,-0.223l-0.042,-0.222l-0.043,-0.221l-0.045,-0.221l-0.046,-0.221l-0.047,-0.22l-0.049,-0.22l-0.05,-0.219l-0.051,-0.218l-0.052,-0.218l-0.054,-0.218l-0.055,-0.217l-0.057,-0.216l-0.058,-0.216l-0.059,-0.216l-0.06,-0.215l-0.062,-0.214l-0.063,-0.214l-0.064,-0.213l-0.065,-0.213l-0.067,-0.212l-0.068,-0.212l-0.07,-0.211l-0.07,-0.21l-0.072,-0.21l-0.073,-0.209l-0.074,-0.209l-0.076,-0.208l-0.077,-0.208l-0.078,-0.207l-0.079,-0.206l-0.08,-0.206l-0.082,-0.205l-0.083,-0.204l-0.084,-0.204l-0.085,-0.203l-0.087,-0.203l-0.087,-0.202l-0.089,-0.201l-0.09,-0.201l-0.092,-0.2l-0.092,-0.2l-0.094,-0.198l-0.094,-0.198l-0.096,-0.198l-0.097,-0.197l-0.099,-0.196l-0.099,-0.195l-0.101,-0.195l-0.101,-0.194l-0.103,-0.193l-0.104,-0.193l-0.105,-0.192l-0.107,-0.191l-0.107,-0.191l-0.108,-0.19l-0.11,-0.189l-0.111,-0.188l-0.111,-0.188l-0.113,-0.187l-0.114,-0.186l-0.115,-0.186l-0.116,-0.184l-0.118,-0.184l-0.118,-0.184l-0.119,-0.182l-0.121,-0.182l-0.121,-0.181l-0.123,-0.18l-0.124,-0.18l-0.124,-0.178l-0.126,-0.178l-0.127,-0.177l-0.127,-0.176l-0.129,-0.176l-0.13,-0.174l-0.131,-0.174l-0.132,-0.173l-0.133,-0.173l-0.134,-0.171l-0.135,-0.171l-0.136,-0.169l-0.136,-0.169l-0.138,-0.168l-0.139,-0.168l-0.14,-0.166l-0.141,-0.166l-0.142,-0.164l-0.143,-0.164l-0.143,-0.163l-0.145,-0.162l-0.146,-0.161l-0.146,-0.161l-0.148,-0.159l-0.148,-0.159l-0.15,-0.157l-0.15,-0.157l-0.152,-0.156l-0.152,-0.155l-0.153,-0.154l-0.154,-0.153l-0.155,-0.152l-0.156,-0.152l-0.157,-0.15l-0.157,-0.15l-0.159,-0.148l-0.159,-0.148l-0.161,-0.146l-0.161,-0.146l-0.162,-0.145l-0.163,-0.143l-0.164,-0.143l-0.164,-0.142l-0.166,-0.141l-0.166,-0.14l-0.168,-0.139l-0.168,-0.138l-0.169,-0.136l-0.169,-0.136l-0.171,-0.135l-0.171,-0.134l-0.173,-0.133l-0.173,-0.132l-0.174,-0.131l-0.174,-0.13l-0.176,-0.129l-0.176,-0.127l-0.177,-0.127l-0.178,-0.126l-0.179,-0.124l-0.179,-0.124l-0.18,-0.123l-0.181,-0.121l-0.182,-0.121l-0.182,-0.119l-0.184,-0.118l-0.184,-0.118l-0.184,-0.116l-0.186,-0.115l-0.186,-0.114l-0.187,-0.113l-0.188,-0.111l-0.188,-0.111l-0.189,-0.11l-0.19,-0.108l-0.191,-0.107l-0.191,-0.107l-0.192,-0.105l-0.193,-0.104l-0.193,-0.103l-0.194,-0.101l-0.195,-0.101l-0.195,-0.099l-0.196,-0.099l-0.197,-0.097l-0.198,-0.096l-0.198,-0.094l-0.198,-0.094l-0.2,-0.092l-0.2,-0.092l-0.201,-0.09l-0.201,-0.089l-0.202,-0.087l-0.203,-0.087l-0.203,-0.085l-0.204,-0.084l-0.204,-0.083l-0.205,-0.082l-0.206,-0.08l-0.207,-0.079l-0.206,-0.078l-0.208,-0.077l-0.208,-0.076l-0.209,-0.074l-0.209,-0.073l-0.21,-0.072l-0.21,-0.07l-0.211,-0.07l-0.212,-0.068l-0.212,-0.067l-0.213,-0.065l-0.213,-0.064l-0.214,-0.063l-0.214,-0.062l-0.215,-0.06l-0.216,-0.059l-0.216,-0.058l-0.216,-0.057l-0.217,-0.055l-0.218,-0.054l-0.218,-0.052l-0.218,-0.051l-0.219,-0.05l-0.22,-0.049l-0.22,-0.047l-0.221,-0.046l-0.221,-0.045l-0.221,-0.043l-0.222,-0.042l-0.223,-0.04l-0.223,-0.039l-0.223,-0.038l-0.224,-0.036l-0.224,-0.036l-0.225,-0.033l-0.225,-0.032l-0.226,-0.031l-0.226,-0.03l-0.227,-0.028l-0.227,-0.027l-0.227,-0.025l-0.228,-0.024l-0.228,-0.022l-0.229,-0.021l-0.229,-0.02l-0.23,-0.018l-0.229,-0.017l-0.231,-0.015l-0.23,-0.014l-0.232,-0.013l-0.231,-0.011l-0.232,-0.009l-0.232,-0.009l-0.233,-0.006l-0.233,-0.005l-0.233,-0.004l-0.234,-0.002l-0.236,-0.001l-111.596,0Z" style="fill:#c9d3df;"/></g></g></svg>